<?xml version="1.0" standalone="no"?>
<!DOCTYPE svg PUBLIC "-//W3C//DTD SVG 20010904//EN"
 "http://www.w3.org/TR/2001/REC-SVG-20010904/DTD/svg10.dtd">
<svg version="1.0" xmlns="http://www.w3.org/2000/svg"
 width="629.000000pt" height="227.000000pt" viewBox="0 0 629.000000 227.000000"
 preserveAspectRatio="xMidYMid meet">

<g transform="translate(0.000000,227.000000) scale(0.100000,-0.100000)"
fill="#000000" stroke="none">
<path d="M6155 2241 c-33 -10 -96 -28 -140 -40 -44 -13 -102 -29 -130 -36 -45
-13 -237 -65 -540 -147 -60 -16 -144 -38 -185 -50 -100 -27 -169 -45 -232 -62
-69 -18 -241 -65 -298 -81 -40 -11 -154 -42 -355 -97 -38 -10 -95 -26 -125
-34 -30 -8 -86 -23 -125 -34 -38 -10 -106 -28 -150 -40 -142 -38 -188 -50
-305 -81 -63 -17 -144 -38 -180 -48 -36 -10 -123 -35 -195 -54 -71 -20 -170
-47 -220 -61 -85 -23 -229 -62 -340 -91 -27 -7 -84 -22 -125 -34 -75 -21 -262
-71 -355 -96 -27 -7 -86 -23 -130 -35 -102 -28 -168 -46 -390 -104 -173 -45
-186 -47 -320 -48 -123 0 -151 3 -230 27 -123 36 -198 78 -277 157 -74 73
-105 126 -138 236 -20 66 -22 89 -17 225 5 160 22 241 84 395 49 123 10 91
-152 -123 -447 -593 -638 -1072 -556 -1394 11 -46 33 -105 48 -130 33 -57 111
-140 166 -177 23 -16 44 -32 47 -35 14 -17 186 -90 256 -109 214 -56 502 -24
824 94 95 34 424 169 510 208 25 11 81 35 125 53 44 18 148 62 230 98 83 35
242 103 355 152 113 48 273 116 355 152 166 73 394 171 555 239 58 25 123 53
145 64 54 25 331 145 433 187 46 18 91 38 100 43 9 5 118 52 242 106 124 53
243 104 265 114 22 10 80 34 128 54 99 41 564 244 645 282 29 13 55 24 58 24
3 0 124 52 268 114 144 63 286 124 314 135 81 32 182 83 182 93 0 13 -61 8
-125 -11z"/>
</g>
</svg>
